HIERARCHY
ROOT root
{
  OFFSET 0.000000 0.000000 0.000000
  CHANNELS 6 Xposition Yposition Zposition Zrotation Yrotation Xrotation
  JOINT lhipjoint
  {
    OFFSET 0.000000 0.000000 0.000000
    CHANNELS 3 Zrotation Yrotation Xrotation
    JOINT lfemur
    {
      OFFSET 0.102404 -0.080329 0.066655
      CHANNELS 3 Zrotation Yrotation Xrotation
      JOINT ltibia
      {
        OFFSET 0.121828 -0.334720 0.000000
        CHANNELS 3 Zrotation Yrotation Xrotation
        JOINT lfoot
        {
          OFFSET 0.142104 -0.390427 0.000000
          CHANNELS 3 Zrotation Yrotation Xrotation
          JOINT ltoes
          {
            OFFSET 0.010339 -0.028407 0.110130
            CHANNELS 3 Zrotation Yrotation Xrotation
            End Site
            {
              OFFSET 0.000000 -0.000000 0.057305
            }
          }
        }
      }
    }
  }
  JOINT rhipjoint
  {
    OFFSET 0.000000 0.000000 0.000000
    CHANNELS 3 Zrotation Yrotation Xrotation
    JOINT rfemur
    {
      OFFSET -0.081233 -0.080330 0.066655
      CHANNELS 3 Zrotation Yrotation Xrotation
      JOINT rtibia
      {
        OFFSET -0.127134 -0.349297 0.000000
        CHANNELS 3 Zrotation Yrotation Xrotation
        JOINT rfoot
        {
          OFFSET -0.139133 -0.382266 0.000000
          CHANNELS 3 Zrotation Yrotation Xrotation
          JOINT rtoes
          {
            OFFSET -0.014837 -0.040763 0.099426
            CHANNELS 3 Zrotation Yrotation Xrotation
            End Site
            {
              OFFSET -0.000000 -0.000000 0.053684
            }
          }
        }
      }
    }
  }
  JOINT lowerback
  {
    OFFSET 0.000000 0.000000 0.000000
    CHANNELS 3 Zrotation Yrotation Xrotation
    JOINT upperback
    {
      OFFSET -0.004925 0.109363 -0.016307
      CHANNELS 3 Zrotation Yrotation Xrotation
      JOINT thorax
      {
        OFFSET 0.000675 0.109981 0.003368
        CHANNELS 3 Zrotation Yrotation Xrotation
        JOINT lowerneck
        {
          OFFSET 0.002891 0.112938 0.011517
          CHANNELS 3 Zrotation Yrotation Xrotation
          JOINT upperneck
          {
            OFFSET 0.001559 0.090381 0.019281
            CHANNELS 3 Zrotation Yrotation Xrotation
            JOINT head
            {
              OFFSET -0.002701 0.094100 -0.013586
              CHANNELS 3 Zrotation Yrotation Xrotation
              End Site
              {
                OFFSET -0.001235 0.095160 -0.006750
              }
            }
          }
        }
        JOINT lclavicle
        {
          OFFSET 0.002891 0.112938 0.011517
          CHANNELS 3 Zrotation Yrotation Xrotation
          JOINT lhumerus
          {
            OFFSET 0.146536 0.100864 -0.016287
            CHANNELS 3 Zrotation Yrotation Xrotation
            JOINT lradius
            {
              OFFSET 0.292299 -0.000000 0.000000
              CHANNELS 3 Zrotation Yrotation Xrotation
              JOINT lwrist
              {
                OFFSET 0.192136 -0.000000 -0.000000
                CHANNELS 3 Zrotation Yrotation Xrotation
                End Site
                {
                  OFFSET 0.096068 -0.000000 -0.000000
                }
              }
            }
          }
        }
        JOINT rclavicle
        {
          OFFSET 0.002891 0.112938 0.011517
          CHANNELS 3 Zrotation Yrotation Xrotation
          JOINT rhumerus
          {
            OFFSET -0.162418 0.087763 -0.041252
            CHANNELS 3 Zrotation Yrotation Xrotation
            JOINT rradius
            {
              OFFSET -0.306127 -0.000000 -0.000000
              CHANNELS 3 Zrotation Yrotation Xrotation
              JOINT rwrist
              {
                OFFSET -0.193077 -0.000000 -0.000000
                CHANNELS 3 Zrotation Yrotation Xrotation
                End Site
                {
                  OFFSET -0.096539 -0.000000 -0.000000
                }
              }
            }
          }
        }
      }
    }
  }
}
MOTION
Frames: 8
Frame Time: 0.04166667
0.00000 0.31172 0.00000 18.11495 1.11577 -34.58892 0.00000 -0.00000 0.00000 5.59717 34.12525 -80.95044 29.67951 17.58617 119.44576 -0.97878 -18.17725 0.45440 0.12976 2.32200 6.39641 0.00000 -0.00000 0.00000 7.42004 -9.96490 -100.66635 -34.27022 -14.16127 136.11263 -0.67275 8.54111 -14.90912 -0.08115 -1.83760 5.05705 -12.96450 2.15894 36.50990 -2.66905 0.15805 15.29000 3.76006 0.37755 -0.78386 6.30704 -0.75544 -7.23343 -7.26528 2.07638 39.40120 -3.77043 1.49940 15.02950 0.00000 0.00000 0.00000 -51.71541 -15.52765 39.61569 10.09964 -16.89529 -1.50378 -0.00000 0.00000 -27.31810 0.00000 0.00000 0.00000 86.80801 -1.01349 -18.98961 -2.49969 4.32001 -0.09430 0.00000 0.00000 20.61940
0.00000 0.31930 0.00000 20.16008 1.45419 -35.04222 0.00000 -0.00000 0.00000 4.82192 35.59909 -77.70236 30.08795 17.36010 120.80598 -0.85577 -18.67025 -3.19525 0.04682 1.39639 3.84018 0.00000 -0.00000 0.00000 3.48213 -9.85921 -99.31615 -34.69799 -13.71604 137.88834 -0.76673 9.27905 -15.95418 -0.13457 -2.36446 6.51402 -12.36380 1.54797 37.16850 -2.56555 -0.51103 15.18180 3.76965 0.09658 -1.07728 7.17924 -0.17848 -7.17643 -9.78464 3.83800 39.77960 -4.80615 2.12882 15.47500 -0.00000 -0.00000 0.00000 -44.34615 -18.14874 44.19226 12.24447 -20.17027 -2.18586 -0.00000 0.00000 -33.55570 -0.00000 -0.00000 0.00000 85.15679 -2.00825 -32.49419 -2.45268 4.23912 -0.09079 0.00000 0.00000 32.89580
0.00000 0.32809 0.00000 22.00409 0.91826 -36.16298 0.00000 -0.00000 0.00000 5.82786 37.77742 -73.03905 30.49075 17.12449 122.16483 -0.70939 -18.98258 -5.86154 0.16408 2.60972 7.19401 0.00000 -0.00000 0.00000 0.34744 -8.89287 -95.66835 -34.94808 -13.44203 138.95347 -1.05886 9.58753 -18.57405 -0.10455 -2.08504 5.74073 -11.97350 1.25807 38.72470 -1.98299 -0.91882 15.10810 4.29730 -0.07083 -1.62866 6.61428 -0.16431 -7.84344 -11.39470 4.76683 40.64030 -5.35999 2.29512 16.27570 -0.00000 -0.00000 0.00000 -39.44215 -20.27024 41.71562 12.72284 -20.87977 -2.35358 -0.00000 0.00000 -31.26330 -0.00000 -0.00000 0.00000 82.12525 -3.06578 -45.54184 -2.44168 4.22019 -0.08998 0.00000 0.00000 45.92250
0.00000 0.33690 0.00000 22.61510 -0.41062 -36.82638 0.00000 -0.00000 0.00000 8.39187 40.79698 -68.77544 31.15458 16.70721 124.44602 -0.33112 -18.27628 -9.59025 0.24466 3.18296 8.78854 0.00000 -0.00000 0.00000 -1.55425 -6.62921 -92.46277 -35.20614 -13.14783 140.07561 -1.35619 9.21608 -20.88960 -0.18118 -2.74161 7.56019 -10.08550 0.32035 39.96850 -1.19439 -1.50036 15.15480 4.37451 -0.28832 -2.01389 6.28748 -0.05895 -8.02656 -13.19840 5.77313 40.73630 -6.00454 2.49660 16.62170 -0.00000 0.00000 0.00000 -34.44143 -21.41886 42.68172 13.38736 -21.85214 -2.59570 -0.00000 0.00000 -33.20750 -0.00000 0.00000 0.00000 78.57276 -3.12627 -58.23254 -2.36369 4.08593 -0.08433 0.00000 0.00000 58.86690
0.00000 0.34640 0.00000 23.87784 -1.51509 -35.76904 0.00000 -0.00000 0.00000 9.19580 43.82727 -66.12352 31.73705 16.30929 126.49564 -0.27331 -19.34859 -11.13352 0.30156 3.53083 9.76031 0.00000 -0.00000 0.00000 -4.45909 -6.30163 -92.20800 -35.58222 -12.69651 141.75721 -1.56532 9.06028 -22.42113 -0.23828 -3.14146 8.67284 -8.59309 -1.01410 37.65710 -0.75470 -2.40642 15.69720 4.38988 -0.79464 -0.69445 5.81768 0.13191 -8.23994 -15.00480 6.92191 40.66070 -6.60941 2.73717 16.95420 -0.00000 0.00000 0.00000 -31.99543 -22.11021 39.19369 13.11255 -21.45190 -2.49430 -0.00000 0.00000 -29.30420 -0.00000 0.00000 0.00000 74.59874 -3.13442 -70.54702 -2.44038 4.21794 -0.08988 0.00000 0.00000 71.78020
0.00000 0.35604 0.00000 25.00410 -2.63227 -35.53096 0.00000 -0.00000 0.00000 11.57740 46.97105 -61.25173 32.15570 16.00354 128.00006 -0.52639 -22.14391 -11.32646 0.37979 3.95787 10.95817 0.00000 -0.00000 0.00000 -8.22808 -7.62976 -91.12997 -35.98386 -12.18185 143.62164 -1.54349 11.47840 -22.47783 -0.29867 -3.51401 9.71324 -7.79368 -1.75148 37.77850 0.26105 -3.06990 15.48050 5.27254 -1.14752 -0.92393 5.37165 0.15233 -8.17904 -16.61440 7.74480 40.65570 -7.19263 2.89577 17.22310 -0.00000 0.00000 0.00000 -31.23038 -21.80643 38.30198 13.42098 -21.90092 -2.60822 -0.00000 0.00000 -28.68150 -0.00000 0.00000 0.00000 69.45528 -4.57385 -82.92464 -2.16506 3.74376 -0.07077 0.00000 0.00000 84.82930
0.00000 0.36376 0.00000 25.92272 -3.63430 -34.82407 0.00000 -0.00000 0.00000 15.43314 50.76311 -56.25349 32.74927 15.53944 130.18365 -0.68109 -25.44566 -13.20059 0.09925 2.03163 5.59309 0.00000 -0.00000 0.00000 -12.38560 -11.55395 -91.23703 -36.44480 -11.54373 145.86363 -1.40290 15.01619 -22.20316 -0.15176 -2.51031 6.91824 -7.99097 -2.93402 36.94840 1.46732 -4.56351 15.32840 7.13705 -2.01799 -0.68878 3.38092 0.63344 -7.72642 -18.04380 9.41847 39.97880 -7.16889 3.19861 17.14860 0.00000 0.00000 0.00000 -32.83902 -19.56350 36.79600 13.51499 -22.03711 -2.64339 -0.00000 0.00000 -27.41270 0.00000 0.00000 0.00000 62.52340 -3.73475 -93.17941 -2.16115 3.73703 -0.07051 0.00000 0.00000 96.59050
0.00000 0.36800 0.00000 26.20162 -4.84080 -34.75197 0.00000 -0.00000 0.00000 23.63368 53.74346 -49.06592 33.44215 14.94797 132.81848 -1.41092 -29.88458 -12.49048 0.00283 0.34381 0.94467 0.00000 -0.00000 0.00000 -16.02683 -15.76064 -90.59089 -36.84166 -10.94707 147.89843 -1.12306 18.66352 -21.53414 -0.11794 -2.21406 6.09762 -7.32441 -3.69519 37.40860 2.04308 -5.27068 15.33480 7.63456 -2.36042 -0.74938 3.43256 0.79454 -8.38790 -18.77850 9.83796 39.82910 -7.48868 3.27574 17.42340 0.00000 0.00000 0.00000 -32.67129 -19.02727 37.01082 13.66938 -22.26009 -2.70160 -0.00000 0.00000 -25.63410 0.00000 0.00000 0.00000 58.12046 -1.61234 -105.18368 -3.19170 5.50829 -0.15358 0.00000 0.00000 108.09500
